<svg xmlns="http://www.w3.org/2000/svg" viewBox="0 0 57.78 486"><defs><style>.cls-1{fill:#245e83;}</style></defs><g id="レイヤー_2" data-name="レイヤー 2"><g id="注意事項"><path class="cls-1" d="M6,406.88h4.4v-31.2H25.59v28H35v-28H47.38v30.13h9.44v-41.4H6V346.18a22.49,22.49,0,0,0,2.68,3.47H30.93v-24.3H21.52v12.91H14.43a24.48,24.48,0,0,1-3.37-6.11A19.62,19.62,0,0,1,9.67,325a14.78,14.78,0,0,1,5-11.58q5-4.41,14.91-4.41,9.23,0,13.91,4.36t4.68,11.75a13.38,13.38,0,0,1-2.38,8.13,11.79,11.79,0,0,1-6.49,4.43l2.09,11.2a19.71,19.71,0,0,0,12.06-7.52q4.35-5.85,4.36-16.24A28.91,28.91,0,0,0,55,311.79a24.61,24.61,0,0,0-10.4-10.7,32.12,32.12,0,0,0-15.5-3.66,33.84,33.84,0,0,0-14.87,3.28A23.39,23.39,0,0,0,6,307.14V287l50.82-20.35V254.75L6,235V220.4a16.89,16.89,0,0,0,2.26,1.76,16.52,16.52,0,0,0,9,2.66,16.67,16.67,0,0,0,8.9-2.22,15.72,15.72,0,0,0,5.67-6.17,55.26,55.26,0,0,0,4-12.17q1.94-8.23,3.73-10.36A4.29,4.29,0,0,1,43,192.22,4.09,4.09,0,0,1,46.43,194a13,13,0,0,1,2,7.7q0,4.75-1.89,7.14c-1.26,1.58-3.32,2.62-6.19,3.1l.5,11.27a16.22,16.22,0,0,0,12.3-5.58q4.61-5.31,4.61-15.82a27.87,27.87,0,0,0-2-11,15.15,15.15,0,0,0-5.65-7,14.4,14.4,0,0,0-8-2.42A14.55,14.55,0,0,0,31,186.59q-3.27,3.65-5.52,12.72-1.76,7-2.44,9a9.34,9.34,0,0,1-2.41,4.06,5.14,5.14,0,0,1-3.38,1.16,6.84,6.84,0,0,1-5.38-2.76Q9.52,208,9.52,202.58a12.13,12.13,0,0,1,2.59-8.17q2.6-3,8.11-4l-1.06-11q-8.37,1-13.16,5.62V164a16.11,16.11,0,0,0,2.26,1.76,16.45,16.45,0,0,0,9,2.67,16.58,16.58,0,0,0,8.9-2.23A15.59,15.59,0,0,0,31.82,160a55.07,55.07,0,0,0,4-12.17q1.94-8.22,3.73-10.36A4.31,4.31,0,0,1,43,135.83a4.09,4.09,0,0,1,3.47,1.79,12.91,12.91,0,0,1,2,7.69q0,4.77-1.89,7.14c-1.26,1.59-3.32,2.62-6.19,3.11l.5,11.27a16.29,16.29,0,0,0,12.3-5.58q4.61-5.31,4.61-15.82a27.84,27.84,0,0,0-2-11,15.09,15.09,0,0,0-5.65-7A14.66,14.66,0,0,0,31,130.19q-3.27,3.66-5.52,12.72-1.76,7.05-2.44,9A9.34,9.34,0,0,1,20.59,156a5.14,5.14,0,0,1-3.38,1.16,6.84,6.84,0,0,1-5.38-2.76c-1.54-1.85-2.31-4.58-2.31-8.21A12.13,12.13,0,0,1,12.11,138q2.6-3,8.11-4l-1.06-11Q10.79,124,6,128.66V112h4.4V80.77H25.59v28H35v-28H47.38v30.12h9.44V69.49H6V53.93H56.82V37L18.74,27,56.82,16.87V0H0V483a3,3,0,0,0,3,3H3a3,3,0,0,0,3-3ZM43.8,260.57l-20.72,7.7V253Zm-30.13-11v22.32L6,274.84V246.78ZM44.94,43.46H6V33.64Zm0-33L6,20.26V10.47Z"/></g></g></svg>